<svg xmlns="http://www.w3.org/2000/svg" width="55" height="55" viewBox="0 0 55 55">
  <g id="Group_12066" data-name="Group 12066" transform="translate(-1377 -418)">
    <rect id="Rectangle_290" data-name="Rectangle 290" width="55" height="55" rx="10" transform="translate(1377 418)" fill="rgba(45,148,201,0.3)"/>
    <g id="Icon_feather-more-vertical" data-name="Icon feather-more-vertical" transform="translate(1425 427.5) rotate(90)">
      <path id="Path_183" data-name="Path 183" d="M20,18.25a1.75,1.75,0,1,1-1.75-1.75A1.75,1.75,0,0,1,20,18.25Z" transform="translate(0 1.75)" fill="#2d94c9" stroke="#2d94c9" stroke-linecap="round" stroke-linejoin="round" stroke-width="4"/>
      <path id="Path_184" data-name="Path 184" d="M20,7.75A1.75,1.75,0,1,1,18.25,6,1.75,1.75,0,0,1,20,7.75Z" transform="translate(0 0)" fill="#2d94c9" stroke="#2d94c9" stroke-linecap="round" stroke-linejoin="round" stroke-width="4"/>
      <path id="Path_185" data-name="Path 185" d="M20,28.75A1.75,1.75,0,1,1,18.25,27,1.75,1.75,0,0,1,20,28.75Z" transform="translate(0 3.5)" fill="#2d94c9" stroke="#2d94c9" stroke-linecap="round" stroke-linejoin="round" stroke-width="4"/>
    </g>
  </g>
</svg>
