<svg xmlns="http://www.w3.org/2000/svg" width="27.633" height="29.976" viewBox="0 0 27.633 29.976">
  <g id="notification" transform="translate(-20)">
    <g id="Group_3" data-name="Group 3" transform="translate(21.428)">
      <g id="Group_2" data-name="Group 2">
        <g id="Path_3" data-name="Path 3" transform="translate(-44.39)">
          <path d="M 56.80130386352539 29.8753776550293 C 54.91951370239258 29.8753776550293 53.38856506347656 28.34442901611328 53.38856506347656 26.46263885498047 L 53.38856506347656 26.36263847351074 L 53.2885627746582 26.36263847351074 L 47.90302276611328 26.36263847351074 C 46.88485336303711 26.36263847351074 45.92792510986328 25.91325759887695 45.27759170532227 25.12972831726074 C 44.62666320800781 24.34546852111816 44.36102294921875 23.32100868225098 44.54880142211914 22.31904792785645 C 44.95053482055664 20.17556762695312 45.74651336669922 18.78310775756836 46.44878387451172 17.55455780029297 C 47.17345428466797 16.28700828552246 47.74556350708008 15.28630828857422 47.74556350708008 13.69967842102051 L 47.74556350708008 11.94330787658691 C 47.74556350708008 9.747557640075684 48.55434417724609 7.625537872314453 50.02291488647461 5.96815824508667 C 51.4801025390625 4.323607921600342 53.46808242797852 3.264108180999756 55.62064361572266 2.984827995300293 L 55.7077751159668 2.973518133163452 L 55.7077751159668 2.885658025741577 L 55.7077751159668 1.170918107032776 C 55.7077751159668 0.5804080367088318 56.18818283081055 0.09999806433916092 56.77868270874023 0.09999806433916092 C 57.36919403076172 0.09999806433916092 57.84960174560547 0.5804080367088318 57.84960174560547 1.170918107032776 L 57.84960174560547 2.882198095321655 L 57.84960174560547 2.970378160476685 L 57.93709182739258 2.98140811920166 C 59.94966506958008 3.235278129577637 61.77376174926758 4.142387866973877 63.21218490600586 5.604688167572021 C 64.88857269287109 7.308748245239258 65.81180572509766 9.559847831726074 65.81180572509766 11.94330787658691 L 65.81180572509766 13.69967842102051 C 65.81180572509766 14.9080982208252 66.14425659179688 15.75884819030762 66.718505859375 16.81997871398926 C 66.85467529296875 17.0715389251709 66.88471984863281 17.36105728149414 66.80312347412109 17.63522720336914 C 66.72152709960938 17.90939712524414 66.53803253173828 18.13536834716797 66.28645324707031 18.27149772644043 C 66.13017272949219 18.35611724853516 65.95427703857422 18.40083885192871 65.77774047851562 18.40083885192871 C 65.38362121582031 18.40083885192871 65.02235412597656 18.18572807312012 64.83492279052734 17.83944892883301 C 64.27129364013672 16.79808807373047 63.66997146606445 15.53350830078125 63.66997146606445 13.69967842102051 L 63.66997146606445 11.94330787658691 C 63.66997146606445 8.198038101196289 60.6339225769043 5.106967926025391 56.90210342407227 5.052788257598877 L 56.67927169799805 5.052778244018555 C 52.93356323242188 5.107138156890869 49.88738250732422 8.198207855224609 49.88738250732422 11.94330787658691 L 49.88738250732422 13.69967842102051 C 49.88738250732422 15.85559844970703 49.08473205566406 17.25937843322754 48.30850219726562 18.6169376373291 C 47.65985488891602 19.75160789489746 46.98922348022461 20.92472839355469 46.65400314331055 22.71350860595703 C 46.55810165405273 23.22507858276367 46.78301239013672 23.58986854553223 46.92561340332031 23.76177787780762 C 47.06787490844727 23.93321800231934 47.38399505615234 24.2208080291748 47.90302276611328 24.2208080291748 L 65.67698669433594 24.2208080291748 C 66.19580078125 24.2208080291748 66.51204681396484 23.9332389831543 66.65438079833984 23.76181793212891 C 66.79700469970703 23.58988761901855 67.02189636230469 23.22511863708496 66.92597961425781 22.71349716186523 C 66.8172607421875 22.1331672668457 67.20100402832031 21.5724983215332 67.78139495849609 21.46370887756348 C 67.84703063964844 21.45140838623047 67.91386413574219 21.44516754150391 67.98002624511719 21.44516754150391 C 68.49429321289062 21.44516754150391 68.93637084960938 21.81267738342285 69.03119659423828 22.31903839111328 C 69.21895599365234 23.3210277557373 68.95332336425781 24.34547805786133 68.30241394042969 25.12972831726074 C 67.65211486816406 25.91325759887695 66.69518280029297 26.36263847351074 65.67698669433594 26.36263847351074 L 60.31404495239258 26.36263847351074 L 60.21404266357422 26.36263847351074 L 60.21404266357422 26.46263885498047 C 60.21404266357422 28.34442901611328 58.6830940246582 29.8753776550293 56.80130386352539 29.8753776550293 Z M 55.53044509887695 26.36263847351074 L 55.53044509887695 26.46263885498047 C 55.53044509887695 27.16341781616211 56.1005744934082 27.73354721069336 56.80135345458984 27.73354721069336 C 57.50213241577148 27.73354721069336 58.07226181030273 27.16341781616211 58.07226181030273 26.46263885498047 L 58.07226181030273 26.36263847351074 L 57.97226333618164 26.36263847351074 L 55.63044357299805 26.36263847351074 L 55.53044509887695 26.36263847351074 Z" stroke="none"/>
          <path d="M 56.80130386352539 29.77537727355957 C 58.62795257568359 29.77537727355957 60.11404418945312 28.28928756713867 60.11404418945312 26.46263885498047 L 60.11404418945312 26.26263809204102 L 65.67698669433594 26.26263809204102 C 66.66534423828125 26.26263809204102 67.59422302246094 25.8264274597168 68.2254638671875 25.06586837768555 C 68.85731506347656 24.30457878112793 69.11516571044922 23.31011772155762 68.93289947509766 22.33743858337402 C 68.84693145751953 21.87836837768555 68.44618988037109 21.54516792297363 67.98002624511719 21.54516792297363 C 67.92003631591797 21.54516792297363 67.85940551757812 21.55082893371582 67.79981994628906 21.56199836730957 C 67.27362060546875 21.6606273651123 66.92571258544922 22.16893768310547 67.02427673339844 22.69507789611816 C 67.12770080566406 23.2468376159668 66.88516235351562 23.64023780822754 66.73131561279297 23.82569885253906 C 66.57778167724609 24.0106086730957 66.23665618896484 24.32080841064453 65.67698669433594 24.32080841064453 L 47.90302276611328 24.32080841064453 C 47.34313201904297 24.32080841064453 47.00211334228516 24.01057815551758 46.84865188598633 23.82562828063965 C 46.69485473632812 23.64021873474121 46.4522819519043 23.24679756164551 46.55571365356445 22.69508743286133 C 46.89404296875 20.88973808288574 47.56892395019531 19.70917892456055 48.22169494628906 18.56730842590332 C 48.99143218994141 17.22107887268066 49.78738403320312 15.82902812957764 49.78738403320312 13.69967842102051 L 49.78738403320312 11.94330787658691 C 49.78738403320312 8.143868446350098 52.87777328491211 5.007937908172607 56.67927169799805 4.952777862548828 L 56.9035530090332 4.952797889709473 C 60.68971252441406 5.007768154144287 63.76997375488281 8.143697738647461 63.76997375488281 11.94330787658691 L 63.76997375488281 13.69967842102051 C 63.76997375488281 15.51013851165771 64.36507415771484 16.76126861572266 64.92287445068359 17.79184722900391 C 65.09280395507812 18.10580825805664 65.42037200927734 18.30083847045898 65.77774047851562 18.30083847045898 C 65.93770599365234 18.30083847045898 66.09712982177734 18.26028823852539 66.23886108398438 18.18354797363281 C 66.46694183349609 18.06012725830078 66.63329315185547 17.85526847839355 66.70728302001953 17.60669898986816 C 66.78126525878906 17.3581371307373 66.75401306152344 17.09564781188965 66.63055419921875 16.86757850646973 C 66.04867553710938 15.79233837127686 65.71179962158203 14.92927837371826 65.71179962158203 13.69967842102051 L 65.71179962158203 11.94330787658691 C 65.71179962158203 9.586248397827148 64.79877471923828 7.360057830810547 63.14089202880859 5.674808025360107 C 61.71839141845703 4.228708267211914 59.91462326049805 3.331648111343384 57.9245719909668 3.080628156661987 L 57.74960327148438 3.058557987213135 L 57.74960327148438 1.170918107032776 C 57.74960327148438 0.6355480551719666 57.31405258178711 0.199998065829277 56.77868270874023 0.199998065829277 C 56.24332427978516 0.199998065829277 55.80777359008789 0.6355480551719666 55.80777359008789 1.170918107032776 L 55.80777359008789 3.06138801574707 L 55.63350296020508 3.083997964859009 C 53.50490188598633 3.360167980194092 51.53893280029297 4.407998085021973 50.09775161743164 6.034468173980713 C 48.64540481567383 7.673548221588135 47.84556198120117 9.772018432617188 47.84556198120117 11.94330787658691 L 47.84556198120117 13.69967842102051 C 47.84556198120117 15.31286811828613 47.26763153076172 16.3237476348877 46.53560256958008 17.60418891906738 C 45.83724212646484 18.82586860656738 45.04571151733398 20.21055793762207 44.6470947265625 22.33746719360352 C 44.46481323242188 23.31009864807129 44.72267150878906 24.30455780029297 45.35454177856445 25.06586837768555 C 45.98581314086914 25.8264274597168 46.91469192504883 26.26263809204102 47.90302276611328 26.26263809204102 L 53.48856353759766 26.26263809204102 L 53.48856353759766 26.46263885498047 C 53.48856353759766 28.28928756713867 54.97465515136719 29.77537727355957 56.80130386352539 29.77537727355957 M 55.43044281005859 26.26263809204102 L 58.17226409912109 26.26263809204102 L 58.17226409912109 26.46263885498047 C 58.17226409912109 27.21855735778809 57.55727386474609 27.83354759216309 56.80135345458984 27.83354759216309 C 56.04543304443359 27.83354759216309 55.43044281005859 27.21855735778809 55.43044281005859 26.46263885498047 L 55.43044281005859 26.26263809204102 M 56.80130386352539 29.97537803649902 C 54.86436462402344 29.97537803649902 53.2885627746582 28.39955711364746 53.2885627746582 26.46263885498047 L 47.90302276611328 26.46263885498047 C 46.85504150390625 26.46263885498047 45.87006378173828 26.0001277923584 45.20064163208008 25.1935977935791 C 44.53065490722656 24.38636779785156 44.25723266601562 23.33196830749512 44.45051193237305 22.30062866210938 C 44.85541152954102 20.14022827148438 45.65603256225586 18.73987770080566 46.36231231689453 17.50432777404785 C 47.07926177978516 16.25027847290039 47.64556503295898 15.2597484588623 47.64556503295898 13.69967842102051 L 47.64556503295898 11.94330787658691 C 47.64556503295898 7.328807830810547 51.13150405883789 3.46642804145813 55.60777282714844 2.885658025741577 L 55.60777282714844 1.170918107032776 C 55.60777282714844 0.5242180824279785 56.13201141357422 -1.93542473425623e-06 56.77868270874023 -1.93542473425623e-06 C 57.42537307739258 -1.93542473425623e-06 57.94960403442383 0.5242180824279785 57.94960403442383 1.170918107032776 L 57.94960403442383 2.882198095321655 C 59.96586227416992 3.136528015136719 61.8309440612793 4.057918071746826 63.28347396850586 5.534558296203613 C 64.97843170166016 7.257498264312744 65.91180419921875 9.533517837524414 65.91180419921875 11.94330787658691 L 65.91180419921875 13.69967842102051 C 65.91180419921875 14.88704776763916 66.23990631103516 15.72547817230225 66.80644989013672 16.77238845825195 C 67.11427307128906 17.3410472869873 66.90281677246094 18.05167770385742 66.33404541015625 18.35944747924805 C 65.76551055908203 18.66730117797852 65.05480194091797 18.45576286315918 64.74698638916016 17.88704872131348 C 64.17752075195312 16.83491897583008 63.56997299194336 15.55692768096924 63.56997299194336 13.69967842102051 L 63.56997299194336 11.94330787658691 C 63.56997299194336 8.250838279724121 60.57876205444336 5.206178188323975 56.90065383911133 5.152778148651123 L 56.67927169799805 5.152778148651123 C 52.98861312866211 5.206347942352295 49.98738479614258 8.251018524169922 49.98738479614258 11.94330787658691 L 49.98738479614258 13.69967842102051 C 49.98738479614258 15.88190841674805 49.17806243896484 17.297607421875 48.39531326293945 18.66657829284668 C 47.7508430480957 19.79393768310547 47.08442306518555 20.95963859558105 46.75229263305664 22.7319278717041 C 46.66388320922852 23.20351791381836 46.87121200561523 23.5395679473877 47.00258255004883 23.69793891906738 C 47.13364410400391 23.85588836669922 47.42498397827148 24.12080764770508 47.90302276611328 24.12080764770508 L 65.67698669433594 24.12080764770508 C 66.15500640869141 24.12080764770508 66.44634246826172 23.85582733154297 66.57744598388672 23.69793891906738 C 66.70881652832031 23.5395679473877 66.91609954833984 23.20351791381836 66.82769012451172 22.7319278717041 C 66.70863342285156 22.09635734558105 67.12739562988281 21.48455810546875 67.76296997070312 21.36541748046875 C 68.39869689941406 21.24627304077148 69.01045227050781 21.66500282287598 69.12948608398438 22.30062866210938 C 69.32274627685547 23.33196830749512 69.04934692382812 24.38636779785156 68.37936401367188 25.1935977935791 C 67.70997619628906 26.0001277923584 66.72496032714844 26.46263885498047 65.67698669433594 26.46263885498047 L 60.31404495239258 26.46263885498047 C 60.31404495239258 28.39955711364746 58.73824310302734 29.97537803649902 56.80130386352539 29.97537803649902 Z M 55.63044357299805 26.46263885498047 C 55.63044357299805 27.10827827453613 56.15572357177734 27.63354873657227 56.80135345458984 27.63354873657227 C 57.44700241088867 27.63354873657227 57.97226333618164 27.10827827453613 57.97226333618164 26.46263885498047 L 55.63044357299805 26.46263885498047 Z" stroke="none" fill="#fefefe"/>
        </g>
      </g>
    </g>
    <g id="Group_5" data-name="Group 5" transform="translate(20 2.342)">
      <g id="Group_4" data-name="Group 4">
        <g id="Path_4" data-name="Path 4" transform="translate(-20 -39.999)">
          <path d="M 21.17091178894043 50.67182922363281 C 20.58041191101074 50.67182922363281 20.10000038146973 50.1914176940918 20.10000038146973 49.60091781616211 C 20.10000038146973 46.22078704833984 21.34100151062012 42.97294616699219 23.59440040588379 40.45569610595703 C 23.79729080200195 40.22902679443359 24.08826065063477 40.09902954101562 24.3927001953125 40.09902954101562 C 24.65638160705566 40.09902954101562 24.90991020202637 40.19598770141602 25.10657119750977 40.37204742431641 C 25.31970024108887 40.56282806396484 25.44577026367188 40.82518768310547 25.46157073974609 41.11080932617188 C 25.47736167907715 41.39642715454102 25.38099098205566 41.67109680175781 25.19020080566406 41.88422775268555 C 23.28892135620117 44.00810623168945 22.24183082580566 46.74861907958984 22.24183082580566 49.60091781616211 C 22.24183082580566 50.1914176940918 21.76142120361328 50.67182922363281 21.17091178894043 50.67182922363281 Z" stroke="none"/>
          <path d="M 24.39261054992676 40.19902801513672 L 24.39263153076172 40.19902801513672 C 24.11664009094238 40.19902801513672 23.85285186767578 40.31688690185547 23.66890144348145 40.52239608764648 C 21.43194007873535 43.02128601074219 20.20000076293945 46.24543762207031 20.20000076293945 49.60091781616211 C 20.20000076293945 50.13627624511719 20.63555145263672 50.57182693481445 21.17091178894043 50.57182693481445 C 21.7062816619873 50.57182693481445 22.14183044433594 50.13627624511719 22.14183044433594 49.60091781616211 C 22.14183044433594 46.72396850585938 23.19797134399414 43.95977783203125 25.11569023132324 41.81753921508789 C 25.28867149353027 41.62430953979492 25.37604141235352 41.37527847290039 25.36172103881836 41.11632919311523 C 25.3474006652832 40.85738754272461 25.23310089111328 40.61952972412109 25.03987121582031 40.44655609130859 C 24.86159133911133 40.28695678710938 24.63172149658203 40.19904708862305 24.39261054992676 40.19902801513672 M 24.39270401000977 39.99902725219727 C 24.67071914672852 39.99904632568359 24.94982528686523 40.09750747680664 25.17327117919922 40.29754638671875 C 25.65509033203125 40.72883605957031 25.69602012634277 41.46910858154297 25.26471138000488 41.950927734375 C 23.37984085083008 44.05646896362305 22.34183120727539 46.77328872680664 22.34183120727539 49.60091781616211 C 22.34183120727539 50.24760818481445 21.81761169433594 50.77182769775391 21.17091178894043 50.77182769775391 C 20.52422142028809 50.77182769775391 20.00000190734863 50.24760818481445 20.00000190734863 49.60091781616211 C 20.00000190734863 46.19612884521484 21.25007057189941 42.92459869384766 23.5198802947998 40.38899612426758 C 23.75116729736328 40.130615234375 24.07122039794922 39.99900436401367 24.39270401000977 39.99902725219727 Z" stroke="none" fill="#fefefe"/>
        </g>
      </g>
    </g>
    <g id="Group_7" data-name="Group 7" transform="translate(42.07 2.342)">
      <g id="Group_6" data-name="Group 6">
        <g id="Path_5" data-name="Path 5" transform="translate(-396.977 -40)">
          <path d="M 401.3690490722656 50.67253112792969 C 400.7785339355469 50.67253112792969 400.2981262207031 50.19211959838867 400.2981262207031 49.60161209106445 C 400.2981262207031 46.74930953979492 399.2510681152344 44.00881195068359 397.3497924804688 41.88492965698242 C 396.9559631347656 41.44499206542969 396.9935302734375 40.76663208007812 397.4335021972656 40.37276077270508 C 397.630126953125 40.19672012329102 397.8836059570312 40.09976959228516 398.1472473144531 40.09976959228516 C 398.4516906738281 40.09976959228516 398.74267578125 40.22975921630859 398.9456176757812 40.4564208984375 C 401.198974609375 42.97360992431641 402.43994140625 46.22143936157227 402.43994140625 49.60161209106445 C 402.43994140625 50.19211959838867 401.9595336914062 50.67253112792969 401.3690490722656 50.67253112792969 Z" stroke="none"/>
          <path d="M 398.147216796875 40.19977188110352 L 398.147216796875 40.19977188110352 C 397.9082336425781 40.19977188110352 397.678466796875 40.28765869140625 397.5001831054688 40.44726181030273 C 397.1012878417969 40.80435943603516 397.0672607421875 41.41936874389648 397.42431640625 41.81822967529297 C 399.3420104980469 43.96047210693359 400.3981018066406 46.72465896606445 400.3981018066406 49.60161209106445 C 400.3981018066406 50.13698196411133 400.8336791992188 50.57252883911133 401.3690490722656 50.57252883911133 C 401.9044189453125 50.57252883911133 402.3399353027344 50.13698196411133 402.3399353027344 49.60161209106445 C 402.3399353027344 46.24607849121094 401.1080017089844 43.02194213867188 398.8711242675781 40.52312088012695 C 398.6871337890625 40.3176383972168 398.4232788085938 40.19977951049805 398.147216796875 40.19977188110352 M 398.1472473144531 39.99977111816406 C 398.4686889648438 39.99978256225586 398.7887878417969 40.13137817382812 399.0201110839844 40.38970947265625 C 401.2899475097656 42.92531204223633 402.5399475097656 46.19683074951172 402.5399475097656 49.60161209106445 C 402.5399475097656 50.24831008911133 402.0158996582031 50.77252960205078 401.3690490722656 50.77252960205078 C 400.7221984863281 50.77252960205078 400.1981201171875 50.24831008911133 400.1981201171875 49.60161209106445 C 400.1981201171875 46.77397155761719 399.1601867675781 44.05723190307617 397.2752990722656 41.95162963867188 C 396.8439636230469 41.46979904174805 396.885009765625 40.72954940795898 397.3667907714844 40.29825210571289 C 397.5902404785156 40.09820938110352 397.8692321777344 39.99976348876953 398.1472473144531 39.99977111816406 Z" stroke="none" fill="#fefefe"/>
        </g>
      </g>
    </g>
  </g>
</svg>
